<?xml version="1.0" encoding="UTF-8"?>
<!-- Created with Inkscape (http://www.inkscape.org/) -->
<svg width="804.12" height="808.84" version="1.1" viewBox="0 0 804.12 808.84" xmlns="http://www.w3.org/2000/svg">
 <path d="m271.21 646.74 130.71 135.11 375.51-377.32-163.27-163.36-69.561 69.13 49.872 18.583-0.27296 108.28z" fill="#fff" stroke="#000" stroke-width="1px"/>
 <path d="m24.957 400.78 375.34-374.58 127.7 129.3-333.41 194.4-4.9088 95.612 20.178 19.869 45.066 0.0845-81.866 81.076z" fill="#fff" stroke="#000" stroke-width="1px"/>
 <g transform="translate(1.9418 .70204)">
  <path d="m194.59 349.9c1.9907-3.345 8.3399-7.4709 8.3399-7.4709l436.23-255.44 27.813-15.66s11.484 4.2325 15.267 8.706c4.207 4.9756 6.7256 18.354 6.7256 18.354l-4.0898 69.886-142.21 141.33 49.872 18.583 1.8398 36.5-2.1127 71.784-481.79 312.61-16.702 3.989-10.003-11.888c0.07914-35.385 0.10759-70.769-0.05456-106.15l171.21-169.56-45.066-0.0845s-14.264 1.0442-17.976-2.88c-3.6489-3.8572-2.2017-16.989-2.2017-16.989l2.7444-84.091s-0.0685-7.7695 2.1644-11.522z" fill="#fca600" stroke="#000" stroke-width="30.236"/>
  <g fill="none" stroke="#000">
   <g stroke-linejoin="round">
    <path d="m24.957 400.78 148.1 145.76" stroke-width="37.795"/>
    <path d="m24.957 400.78 375.34-374.58" stroke-linecap="square" stroke-width="38.041"/>
    <path d="m400.3 26.197 127.7 129.3" stroke-width="37.795"/>
   </g>
   <path d="m612.22 240.47 163.27 163.36-375.51 377.32-130.71-135.11" stroke-width="37.795"/>
  </g>
  <path d="m111.62 643.97 302.85-293.62-154.9 3.0796-24.389 3.6374 147.31 1.7944-263.27 263.73z" fill="#fff" opacity=".68156"/>
  <path d="m223.35 362.24c23.42 0.0907 106.09-2.2511 159.13-3.3767l-15.767 16.07-118.87-5.7399z" fill="#ed5814" opacity=".55611"/>
  <path d="m448.75 291.88 34.091-46.313 165.07-138.34-29.119 32.743z" fill="#fff" opacity=".67475"/>
  <path d="m647.92 107.23-21.076 40.835-168.95 143.26-9.1397 0.56455 170.04-151.91z" fill="#ec4d00" opacity=".6507"/>
  <path d="m562.5 343.07 6.2987 6.323-446.03 289.39-4.8911-0.67194 81.242-60.07 217.83-145.81z" fill="#ed5906"/>
 </g>
</svg>
